<svg width="375" height="190" viewBox="0 0 375 190" fill="none" xmlns="http://www.w3.org/2000/svg">
<rect width="375" height="172" fill="url(#paint0_linear_3604_4)"/>
<circle cx="309" cy="16" r="102" fill="white" fill-opacity="0.15"/>
<circle cx="362" cy="128" r="62" fill="white" fill-opacity="0.15"/>
<path d="M242.353 170V122.792H230.379V141.309H211.568V122.792H199.562V170H211.568V150.96H230.379V170H242.353ZM269.179 170.851C280.858 170.851 287.728 163.784 287.728 151.778C287.728 139.935 280.694 132.738 269.179 132.738C257.729 132.738 250.629 140 250.629 151.778C250.629 163.751 257.532 170.851 269.179 170.851ZM269.179 162.018C264.926 162.018 262.505 158.288 262.505 151.778C262.505 145.431 264.991 141.571 269.179 141.571C273.366 141.571 275.853 145.431 275.853 151.778C275.853 158.255 273.432 162.018 269.179 162.018ZM294.958 170H306.506V148.343C306.506 144.679 308.698 142.192 311.937 142.192C315.274 142.192 317.139 144.188 317.139 147.852V170H328.196V148.146C328.196 144.581 330.257 142.192 333.562 142.192C337.062 142.192 338.829 144.123 338.829 148.048V170H350.377V145.104C350.377 137.645 345.666 132.738 338.501 132.738C333.365 132.738 329.112 135.453 327.607 139.608H326.986C325.612 135.224 322.079 132.738 316.877 132.738C312.101 132.738 308.24 135.388 306.833 139.608H306.212V133.588H294.958V170ZM375.469 140.949C379.33 140.949 381.75 143.468 381.947 147.721H368.73C369.024 143.599 371.674 140.949 375.469 140.949ZM382.372 159.27C381.587 161.396 379.264 162.639 375.895 162.639C371.478 162.639 368.763 159.695 368.665 154.951V154.362H393.168V151.156C393.168 139.542 386.625 132.738 375.404 132.738C364.117 132.738 357.28 140.033 357.28 152.04C357.28 163.98 363.954 170.851 375.567 170.851C384.989 170.851 391.663 166.369 392.939 159.27H382.372Z" fill="white" fill-opacity="0.15"/>
<defs>
<linearGradient id="paint0_linear_3604_4" x1="-25.5" y1="-31" x2="294.238" y2="184.303" gradientUnits="userSpaceOnUse">
<stop stop-color="#61D2C4"/>
<stop offset="1" stop-color="#29D890"/>
</linearGradient>
</defs>
</svg>
