<svg width="286" height="278" viewBox="0 0 286 278" fill="none" xmlns="http://www.w3.org/2000/svg">
<path d="M31 149.638C31 220.054 88.0837 277.138 158.5 277.138C228.916 277.138 286 220.054 286 149.638C286 79.2214 211.146 119.429 140.73 119.429C70.3137 119.429 31 79.2214 31 149.638Z" fill="#2DDA93" fill-opacity="0.2"/>
<mask id="mask0_3603_6" style="mask-type:alpha" maskUnits="userSpaceOnUse" x="31" y="22" width="255" height="255">
<circle r="127.5" transform="matrix(-1 0 0 1 158.5 149.5)" fill="#C4C4C4"/>
</mask>
<g mask="url(#mask0_3603_6)">
<path d="M85.9152 225.115C89.1364 199.99 82.4463 173.825 67.5298 153.358L65.944 154.547C80.5631 174.618 87.1541 200.238 83.9825 224.868L85.9152 225.115Z" fill="#456C0A"/>
<path d="M84.4782 226.305L86.4605 226.255C85.8163 203.162 85.172 179.325 92.0108 156.777C92.9028 153.754 94.0426 152.218 95.5789 151.921L95.232 149.988C92.1595 150.583 90.871 153.804 90.1277 156.183C83.1898 179.028 83.834 203.063 84.4782 226.305Z" fill="#456C0A"/>
<path d="M81.4552 223.629C83.5861 210.149 79.572 195.828 70.8006 185.371C69.8094 184.182 68.6201 182.943 67.1334 182.299L66.3405 184.083C67.4307 184.578 68.3228 185.47 69.3139 186.66C77.7385 196.67 81.6039 210.348 79.5225 223.331L81.4552 223.629Z" fill="#456C0A"/>
<path d="M85.7171 228.237H87.6993C87.6002 207.969 91.1683 192.012 98.5522 179.524C99.8406 177.294 101.526 174.816 103.855 173.032C106.184 171.297 108.959 170.603 111.288 171.248L111.833 169.315C108.959 168.522 105.54 169.315 102.715 171.396C100.088 173.329 98.3044 176.055 96.9168 178.433C89.2356 191.368 85.618 207.622 85.7171 228.237Z" fill="#456C0A"/>
<path d="M83.6358 226.8C83.8835 213.618 84.2304 197.215 92.3577 184.777L90.7223 183.686C82.2977 196.571 81.9508 213.321 81.6535 226.751L83.6358 226.8Z" fill="#456C0A"/>
<path d="M52.3161 214.758H117.582L111.932 268.774H57.916L52.3161 214.758Z" fill="#7C5327"/>
<path d="M49.987 222.291H119.861L120.506 214.758H49.3923L49.987 222.291Z" fill="#936134"/>
<path d="M51.9692 192.507C54.5461 178.681 68.5706 175.064 68.5706 175.064C72.4359 173.18 77.2925 172.09 80.8605 174.469C82.9914 175.906 84.2304 178.334 85.3206 180.663C86.4108 182.993 87.402 185.421 87.4515 187.998C87.5011 190.575 86.4108 193.3 84.1312 194.49C82.2481 189.484 78.0854 185.421 73.0802 183.637C76.6978 186.561 79.4234 190.624 80.7614 195.084C81.0092 195.927 81.2074 196.819 80.9596 197.661C80.7614 198.355 80.2658 198.9 79.7703 199.396C76.7969 202.419 73.1297 204.698 69.1157 206.135C68.075 203.608 66.4892 201.279 64.4574 199.396C65.5476 201.675 66.0927 204.203 65.9441 206.73C65.8945 207.275 65.845 207.82 65.6467 208.316C65.3494 208.96 64.8043 209.456 64.2096 209.852C60.6415 212.33 55.9337 211.983 51.6223 212.132C44.288 212.429 37.0032 214.51 30.6104 218.177C30.5609 218.177 49.3427 206.334 51.9692 192.507Z" fill="#548611"/>
<path d="M32.8405 203.806C33.1378 202.468 33.7325 201.229 34.3767 200.04C36.6067 195.728 39.5306 191.764 43.0491 188.444C41.9093 189.038 40.819 189.633 39.6792 190.277C42.9004 180.961 51.4736 173.676 61.1867 172.041C64.1105 171.545 68.0254 172.189 68.6201 175.113C68.6201 175.113 54.5957 178.731 51.9692 192.557C49.3427 206.383 30.5609 218.227 30.5609 218.227C31.6016 215.501 32.1962 212.627 32.3449 209.753C32.4936 207.721 32.3945 205.739 32.8405 203.806Z" fill="#456C0A"/>
<path d="M129.277 183.538C129.426 171.545 118.276 166.143 118.276 166.143C115.352 163.913 111.486 162.179 108.117 163.616C106.085 164.458 104.648 166.292 103.359 168.076C102.071 169.86 100.832 171.694 100.386 173.874C99.9397 176.005 100.386 178.483 102.071 179.87C104.449 176.005 108.612 173.279 113.122 172.685C109.603 174.518 106.63 177.442 104.796 180.961C104.449 181.605 104.102 182.348 104.202 183.092C104.251 183.686 104.598 184.231 104.945 184.727C106.927 187.75 109.603 190.277 112.725 192.111C114.014 190.178 115.748 188.493 117.73 187.254C116.442 188.939 115.55 191.021 115.253 193.152C115.203 193.598 115.153 194.093 115.253 194.539C115.401 195.134 115.798 195.629 116.194 196.075C118.771 198.751 122.785 199.247 126.353 200.089C132.449 201.576 138.197 204.5 142.955 208.663C142.905 208.613 129.178 195.53 129.277 183.538Z" fill="#456C0A"/>
<path d="M143.401 196.175C143.351 195.035 143.103 193.845 142.756 192.755C141.617 188.791 139.832 184.975 137.454 181.605C138.296 182.299 139.139 182.993 139.981 183.686C138.841 175.361 132.895 167.828 125.065 164.805C122.686 163.913 119.316 163.814 118.325 166.143C118.325 166.143 129.475 171.545 129.327 183.538C129.178 195.53 142.905 208.613 142.905 208.613C142.509 206.185 142.459 203.658 142.806 201.229C143.054 199.544 143.45 197.859 143.401 196.175Z" fill="#548611"/>
<path d="M100.98 158.165C102.071 146.321 91.5152 140.126 91.5152 140.126C88.8392 137.698 85.1225 135.716 81.7031 136.806C79.6217 137.5 78.0359 139.135 76.6483 140.82C75.2608 142.455 73.8732 144.19 73.2289 146.271C72.5847 148.353 72.8821 150.83 74.4183 152.317C77.0943 148.7 81.4057 146.37 85.9154 146.073C82.2977 147.609 79.1261 150.285 77.0448 153.606C76.6483 154.25 76.2519 154.894 76.3014 155.637C76.3014 156.232 76.5988 156.777 76.8961 157.322C78.6306 160.444 81.0588 163.17 83.9827 165.251C85.4198 163.418 87.2534 161.931 89.3347 160.841C87.8976 162.427 86.9065 164.359 86.4109 166.441C86.3118 166.887 86.2127 167.333 86.3118 167.779C86.4109 168.373 86.7578 168.919 87.1047 169.365C89.4339 172.189 93.3488 172.982 96.8177 174.122C102.715 176.055 108.166 179.424 112.478 183.885C112.428 183.934 99.8902 169.959 100.98 158.165Z" fill="#66990C"/>
<path d="M113.865 171.743C113.915 170.603 113.716 169.464 113.518 168.324C112.725 164.31 111.239 160.444 109.157 156.876C109.95 157.62 110.693 158.363 111.486 159.106C111.04 150.83 105.787 142.951 98.2549 139.333C95.9753 138.243 92.655 137.896 91.5152 140.126C91.5152 140.126 102.071 146.321 100.98 158.165C99.8902 170.009 112.378 183.984 112.378 183.984C112.18 181.555 112.329 179.078 112.874 176.699C113.27 175.014 113.816 173.428 113.865 171.743Z" fill="#548611"/>
<path d="M96.0246 196.918C99.7414 185.619 90.8212 177.244 90.8212 177.244C88.7399 174.271 85.5682 171.495 82.0002 171.842C79.8197 172.041 77.9366 173.329 76.1526 174.618C74.4181 175.906 72.6836 177.294 71.5934 179.177C70.5031 181.06 70.2058 183.538 71.3951 185.322C74.8145 182.398 79.5224 181.06 83.9824 181.803C80.1171 182.497 76.4499 184.38 73.6252 187.155C73.0801 187.651 72.5845 188.245 72.4358 188.989C72.3367 189.584 72.4358 190.178 72.6341 190.773C73.6252 194.192 75.3597 197.413 77.7879 200.04C79.5719 198.603 81.7029 197.513 83.9824 196.918C82.248 198.157 80.8108 199.842 79.9188 201.725C79.7206 202.121 79.5224 202.567 79.5224 203.013C79.4728 203.608 79.671 204.203 79.9684 204.748C81.6037 208.018 85.2214 209.654 88.3434 211.537C93.6955 214.709 98.2051 219.218 101.426 224.521C101.426 224.62 92.3575 208.217 96.0246 196.918Z" fill="#93C91C"/>
<path d="M105.589 213.024C105.886 211.933 105.986 210.744 105.986 209.604C106.085 205.491 105.49 201.378 104.301 197.513C104.895 198.405 105.49 199.297 106.035 200.238C107.472 192.012 104.053 183.191 97.561 177.987C95.5787 176.451 92.4071 175.311 90.8213 177.244C90.8213 177.244 99.7415 185.619 96.0247 196.918C92.308 208.217 101.426 224.62 101.426 224.62C101.773 222.192 102.467 219.813 103.557 217.632C104.251 216.096 105.143 214.659 105.589 213.024Z" fill="#71B70B"/>
<path d="M55.3391 157.917C56.0329 147.362 66.1919 143.347 66.1919 143.347C68.9175 141.563 72.436 140.325 75.3103 141.811C77.0448 142.703 78.1846 144.388 79.2253 146.073C80.2164 147.708 81.2075 149.443 81.4553 151.376C81.7031 153.308 81.158 155.439 79.5721 156.529C77.7386 152.961 74.2201 150.285 70.3051 149.443C73.2785 151.326 75.7068 154.101 77.0943 157.322C77.3421 157.917 77.5899 158.611 77.4908 159.255C77.3917 159.8 77.0943 160.246 76.7474 160.643C74.8147 163.17 72.2378 165.202 69.4131 166.639C68.422 164.805 66.9848 163.22 65.2999 162.03C66.3406 163.616 66.9353 165.499 67.084 167.382C67.1335 167.779 67.1335 168.225 66.9848 168.572C66.8362 169.067 66.4397 169.513 66.0433 169.86C63.615 172.041 60.047 172.189 56.8258 172.685C51.3251 173.577 46.0721 175.757 41.6616 179.078C41.6616 179.028 54.6453 168.473 55.3391 157.917Z" fill="#93C91C"/>
<path d="M42.058 168.076C42.1571 167.035 42.504 166.044 42.8509 165.103C44.1393 161.683 45.9729 158.462 48.3021 155.637C47.5092 156.183 46.7163 156.728 45.9729 157.273C47.5092 149.988 53.3073 143.793 60.3938 141.712C62.5247 141.068 65.5477 141.217 66.1919 143.347C66.1919 143.347 56.0329 147.312 55.3391 157.917C54.6453 168.473 41.6615 179.078 41.6615 179.078C42.2066 176.947 42.4049 174.766 42.2562 172.586C42.1571 171.049 41.9093 169.563 42.058 168.076Z" fill="#71B70B"/>
<path d="M123.961 154.418L166.463 129.412L200.436 187.153L157.934 212.159L123.961 154.418Z" fill="#5F3916"/>
<path d="M128.901 156.426L166.195 134.483L195.842 184.873L158.548 206.815L128.901 156.426Z" fill="#F2F2F3"/>
<path d="M142.826 152.272L165.905 138.694C166.024 138.624 166.177 138.663 166.247 138.782C166.317 138.901 166.277 139.054 166.158 139.124L143.079 152.703C142.96 152.773 142.807 152.733 142.737 152.614C142.667 152.495 142.707 152.342 142.826 152.272Z" fill="#191919"/>
<g clip-path="url(#clip0_3603_6)">
<path d="M198.101 70.2754C197.993 70.7471 197.831 71.2606 197.717 71.7802C197.015 74.6525 196.258 78.3431 196.185 78.9164C196.149 79.5914 194.273 84.0631 194.373 85.9687C194.472 87.8743 195.413 89.6436 194.767 90.9211C194.12 92.1986 190.252 99.3798 189.672 100.132C189.092 100.884 188.157 103.29 190.975 104.034C193.746 104.772 193.191 104.168 193.573 104.993C193.573 104.993 193.011 105.213 192.371 105.666C191.57 106.245 190.721 107.205 190.737 108.615C190.799 111.196 192.967 111.712 192.727 112.458C192.487 113.205 192.276 114.877 192.562 115.69C192.889 116.556 192.421 118.73 191.995 119.793C191.57 120.856 186.421 135.496 195.989 136.219C205.552 136.989 211.497 130.653 212.819 133.635C212.891 133.838 213.01 134.047 213.123 134.304C214.392 137.328 215.796 141.971 214.748 143.732C213.635 145.63 212.212 146.519 212.212 146.519L232.479 147.087L249.959 130.897C249.959 130.897 247.215 123.027 248.927 115.234C249.149 114.242 249.419 113.257 249.779 112.332C249.779 112.332 258.946 89.3159 257.563 77.9767C256.179 66.6376 247.209 55.4086 232.087 52.917C216.966 50.4253 194.304 59.214 192.067 61.5528C189.842 63.796 198.858 67.3613 198.101 70.2754Z" fill="#F7B492"/>
<path d="M198.102 70.2743C197.994 70.7461 197.832 71.2596 197.717 71.7791C201.249 71.1085 204.533 71.6203 204.533 71.6203C204.533 71.6203 208.331 72.294 209.972 74.2971C211.606 76.3479 210.11 83.1975 212.724 84.7897C215.339 86.3818 213.553 86.302 214.614 92.5036C215.628 98.6992 210.326 101.865 208.657 103.547C206.989 105.229 202.109 109.662 201.35 109.906C200.591 110.149 197.688 110.462 196.52 108.179C195.775 106.775 193.781 106.037 192.365 105.713C191.564 106.291 190.715 107.252 190.731 108.662C190.793 111.242 192.961 111.759 192.721 112.505C192.481 113.252 192.27 114.924 192.556 115.737C192.883 116.603 192.415 118.777 191.989 119.84C191.564 120.902 186.415 135.543 195.983 136.265C205.546 137.036 211.491 130.699 212.813 133.682C212.885 133.885 213.004 134.094 213.117 134.351C221.624 128.484 223.914 117.269 224.585 115.412C225.323 113.418 222.169 103.797 222.561 100.691C222.953 97.5853 225.282 93.365 229.589 93.0836C233.896 92.8022 236.359 96.3653 238.149 102.174C239.149 105.406 244.47 110.932 248.939 115.137C249.161 114.146 249.431 113.161 249.791 112.235C249.791 112.235 258.959 89.2192 257.575 77.8801C256.191 66.541 247.221 55.312 232.1 52.8203C216.978 50.3287 194.316 59.1174 192.079 61.4562C189.843 63.795 198.858 67.3602 198.102 70.2743Z" fill="black"/>
<path d="M213.859 84.1551L212.793 83L214.392 83.4443C214.303 83.7108 214.214 84.0662 213.859 84.1551Z" fill="#2A2A3D"/>
<path d="M218.746 85.7544C218.835 86.0209 218.923 86.1986 218.746 86.4652C218.568 86.7317 218.39 86.8206 218.124 86.8206C218.124 86.8206 218.124 86.8206 218.035 86.8206C218.035 86.9983 217.857 87.2648 217.679 87.4425C217.591 87.5314 217.413 87.5314 217.324 87.5314C217.235 87.5314 217.235 87.5314 217.146 87.5314L213.859 84.155C214.125 84.0662 214.303 83.7996 214.392 83.4442L219.101 84.6881L219.279 84.777C219.279 84.9547 219.545 85.2212 219.456 85.4878C219.368 85.7543 219.101 85.8432 218.923 85.932L218.746 85.7544Z" fill="#F8CEA0"/>
<path d="M245.578 99.615L247 100.415C247 100.77 246.822 101.214 246.733 101.57L245.312 100.77C245.401 100.503 245.578 100.148 245.578 99.7927C245.578 99.7038 245.578 99.615 245.578 99.615Z" fill="#D72427"/>
<path d="M245.312 100.77L246.733 101.57C246.645 101.747 246.556 101.925 246.467 102.103C246.378 102.28 246.2 102.458 246.111 102.636L244.69 101.836C244.868 101.659 244.956 101.481 245.134 101.214C245.134 101.037 245.223 100.859 245.312 100.77Z" fill="#D72427"/>
<path d="M244.69 101.747L246.112 102.547C245.845 102.814 245.578 103.08 245.223 103.258L243.801 102.458C243.89 102.369 243.979 102.28 244.068 102.28C244.335 102.103 244.512 101.925 244.69 101.747Z" fill="#D72427"/>
<path d="M244.868 99.1707L245.578 99.615C245.578 99.7038 245.578 99.7038 245.578 99.7927C245.49 100.148 245.401 100.415 245.312 100.77L244.69 100.415C244.779 100.237 244.779 100.059 244.868 99.8815C244.868 99.7038 244.868 99.3484 244.868 99.1707Z" fill="#EDECF1"/>
<path d="M244.068 101.392L244.69 101.747C244.512 101.925 244.335 102.103 244.157 102.28C244.068 102.369 243.979 102.458 243.89 102.458L243.357 102.192C243.535 102.014 243.801 101.659 244.068 101.392Z" fill="#EDECF1"/>
<path d="M244.601 100.326L245.223 100.681C245.134 100.859 245.134 100.948 245.045 101.125C244.956 101.303 244.779 101.57 244.601 101.747L243.979 101.392C244.068 101.303 244.157 101.125 244.246 101.037C244.423 100.859 244.512 100.592 244.601 100.326Z" fill="#EDECF1"/>
<path d="M218.035 86.7317C218.124 86.7317 218.124 86.7317 218.035 86.7317L244.068 101.392C243.89 101.659 243.624 102.014 243.268 102.192L217.324 87.5314C217.413 87.5314 217.591 87.5314 217.679 87.4425C217.946 87.2648 218.124 86.9094 218.035 86.7317Z" fill="#F4D331"/>
<path d="M219.19 84.6882L244.868 99.1707C244.868 99.4373 244.868 99.7038 244.779 99.8815C244.69 100.059 244.69 100.237 244.601 100.415L218.835 85.8432C219.012 85.7544 219.279 85.6655 219.368 85.399C219.457 85.1324 219.279 84.8659 219.19 84.6882Z" fill="#F4D331"/>
<path d="M218.835 85.7543L244.601 100.326C244.512 100.592 244.423 100.77 244.246 101.037C244.157 101.125 244.068 101.303 243.979 101.392L218.124 86.7317C218.39 86.7317 218.657 86.6428 218.746 86.3763C218.923 86.1097 218.835 85.932 218.746 85.6655L218.835 85.7543Z" fill="#2A2A3D"/>
<path d="M238.119 101.02C238.864 104.583 234.503 109.014 232.007 111.653C233.223 111.306 237.76 106.366 239.766 103.985C239.54 103.654 238.821 101.751 238.119 101.02Z" fill="black" fill-opacity="0.4"/>
<path d="M226.74 100.87C227.851 99.2069 231.404 97.6125 233.041 97.023C225.83 97.0131 224.963 101.967 225.431 104.446C225.404 103.946 225.628 102.532 226.74 100.87Z" fill="black" fill-opacity="0.4"/>
<path d="M226.5 94C229 92 235.4 93.3 237 98.5L226.5 94Z" fill="#F7B492"/>
<path d="M197 86.5C197 87.3284 196.328 88 195.5 88C194.672 88 194.5 87.3284 194.5 86.5C194.5 85.6716 194.171 85 195 85C195.828 85 197 85.6716 197 86.5Z" fill="black"/>
<path d="M196 80C197.5 79.6667 201.3 79.5 204.5 81.5" stroke="black" stroke-width="1.5"/>
</g>
<path d="M152.956 148.824L166.999 140.562C167.118 140.492 167.271 140.532 167.341 140.651C167.411 140.77 167.371 140.923 167.252 140.993L153.21 149.255C153.091 149.325 152.937 149.285 152.867 149.166C152.797 149.047 152.837 148.894 152.956 148.824Z" fill="#191919"/>
<path d="M134.554 157.202L136.449 156.087C136.687 155.947 136.994 156.026 137.134 156.264L138.249 158.159C138.389 158.397 138.309 158.703 138.071 158.844L136.176 159.958C135.938 160.098 135.632 160.019 135.492 159.781L134.377 157.886C134.237 157.648 134.316 157.342 134.554 157.202Z" stroke="black" stroke-width="0.5" stroke-miterlimit="10"/>
<path d="M145.698 157.15L168.777 143.572C168.896 143.502 169.049 143.541 169.119 143.66C169.189 143.779 169.149 143.933 169.03 144.003L145.951 157.581C145.832 157.651 145.679 157.612 145.609 157.493C145.539 157.374 145.579 157.22 145.698 157.15Z" fill="#191919"/>
<path d="M155.783 153.626L169.826 145.364C169.945 145.294 170.098 145.334 170.168 145.453C170.238 145.572 170.198 145.725 170.079 145.795L156.036 154.057C155.917 154.127 155.764 154.087 155.694 153.968C155.624 153.849 155.664 153.696 155.783 153.626Z" fill="#191919"/>
<path d="M137.381 162.003L139.276 160.888C139.514 160.748 139.821 160.828 139.961 161.066L141.075 162.961C141.216 163.199 141.136 163.505 140.898 163.645L139.003 164.76C138.765 164.9 138.459 164.821 138.319 164.583L137.204 162.688C137.064 162.45 137.143 162.143 137.381 162.003Z" stroke="black" stroke-width="0.5" stroke-miterlimit="10"/>
<path d="M149.21 163.113L172.289 149.534C172.408 149.464 172.561 149.504 172.631 149.623C172.701 149.742 172.662 149.895 172.543 149.965L149.464 163.544C149.345 163.614 149.191 163.574 149.121 163.455C149.051 163.336 149.091 163.183 149.21 163.113Z" fill="#191919"/>
<path d="M159.341 159.665L173.383 151.403C173.502 151.333 173.655 151.372 173.725 151.491C173.795 151.61 173.756 151.764 173.637 151.834L159.594 160.096C159.475 160.166 159.322 160.126 159.252 160.007C159.182 159.888 159.221 159.735 159.341 159.665Z" fill="#191919"/>
<path d="M140.939 168.042L142.834 166.927C143.072 166.787 143.378 166.867 143.518 167.105L144.633 169C144.773 169.238 144.694 169.544 144.456 169.684L142.561 170.799C142.323 170.939 142.016 170.86 141.876 170.622L140.761 168.727C140.621 168.489 140.701 168.182 140.939 168.042Z" stroke="black" stroke-width="0.5" stroke-miterlimit="10"/>
<path d="M152.617 168.871L175.696 155.293C175.815 155.223 175.968 155.263 176.038 155.382C176.108 155.501 176.068 155.654 175.949 155.724L152.87 169.302C152.751 169.372 152.598 169.333 152.528 169.214C152.458 169.095 152.498 168.941 152.617 168.871Z" fill="#191919"/>
<path d="M162.747 165.423L176.789 157.161C176.908 157.091 177.062 157.131 177.132 157.25C177.202 157.369 177.162 157.522 177.043 157.592L163 165.854C162.881 165.924 162.728 165.885 162.658 165.766C162.588 165.647 162.628 165.494 162.747 165.423Z" fill="#191919"/>
<path d="M144.3 173.724L146.195 172.609C146.433 172.469 146.739 172.549 146.88 172.787L147.994 174.682C148.134 174.92 148.055 175.226 147.817 175.366L145.922 176.481C145.684 176.621 145.378 176.542 145.238 176.304L144.123 174.409C143.983 174.171 144.062 173.864 144.3 173.724Z" stroke="black" stroke-width="0.5" stroke-miterlimit="10"/>
<path d="M156.26 174.979L179.339 161.4C179.458 161.33 179.611 161.37 179.681 161.489C179.751 161.608 179.712 161.761 179.593 161.831L156.514 175.41C156.395 175.48 156.241 175.44 156.171 175.321C156.101 175.202 156.141 175.049 156.26 174.979Z" fill="#191919"/>
<path d="M166.345 171.454L180.388 163.192C180.507 163.122 180.66 163.162 180.73 163.281C180.8 163.4 180.76 163.553 180.641 163.623L166.599 171.885C166.48 171.955 166.326 171.915 166.256 171.796C166.186 171.677 166.226 171.524 166.345 171.454Z" fill="#191919"/>
<path d="M147.944 179.831L149.839 178.717C150.077 178.577 150.383 178.656 150.523 178.894L151.638 180.789C151.778 181.027 151.699 181.333 151.461 181.473L149.566 182.588C149.328 182.728 149.021 182.649 148.881 182.411L147.766 180.516C147.626 180.278 147.706 179.971 147.944 179.831Z" stroke="black" stroke-width="0.5" stroke-miterlimit="10"/>
<path d="M160.747 182.705L183.827 169.127C183.946 169.057 184.099 169.096 184.169 169.215C184.239 169.334 184.199 169.488 184.08 169.558L161.001 183.136C160.882 183.206 160.729 183.167 160.659 183.048C160.589 182.929 160.628 182.775 160.747 182.705Z" fill="#191919"/>
<path d="M170.13 178.438L184.604 169.922L185.144 170.841L170.671 179.357L170.13 178.438Z" fill="#191919"/>
<path d="M152.431 187.558L154.326 186.443C154.564 186.303 154.87 186.383 155.01 186.621L156.125 188.516C156.265 188.754 156.186 189.06 155.948 189.2L154.053 190.315C153.815 190.455 153.508 190.376 153.368 190.138L152.254 188.243C152.113 188.005 152.193 187.698 152.431 187.558Z" stroke="black" stroke-width="0.5" stroke-miterlimit="10"/>
<path d="M165.044 189.91L188.123 176.331C188.242 176.261 188.395 176.301 188.465 176.42C188.535 176.539 188.496 176.692 188.377 176.762L165.298 190.341C165.179 190.411 165.025 190.371 164.955 190.252C164.885 190.133 164.925 189.98 165.044 189.91Z" fill="#191919"/>
<path d="M174.959 186.588L189.432 178.073L189.973 178.992L175.499 187.507L174.959 186.588Z" fill="#191919"/>
<path d="M156.728 194.762L158.623 193.648C158.861 193.508 159.167 193.587 159.307 193.825L160.422 195.72C160.562 195.958 160.483 196.264 160.245 196.404L158.35 197.519C158.112 197.659 157.805 197.58 157.665 197.342L156.55 195.447C156.41 195.209 156.49 194.903 156.728 194.762Z" stroke="black" stroke-width="0.5" stroke-miterlimit="10"/>
<path d="M134.162 157.514L136.597 159.111C136.731 159.199 136.909 159.102 136.907 158.942L136.868 155.901L136.99 153.267" stroke="black" stroke-width="0.5" stroke-miterlimit="10"/>
<path d="M149.798 139.174L152.286 143.528L143.312 148.859L140.735 144.505L139.669 145.127L143.045 150.902L154.063 144.505L150.686 138.641L149.798 139.174Z" fill="#B3B4B4"/>
<path d="M127.674 305.679C124.12 332.779 125.364 339.176 127.408 339.709C131.85 340.864 145.178 314.031 159.571 289.509C160.904 287.287 164.014 282.045 169.523 276.181C171.033 274.582 172.188 273.516 172.455 273.249C176.364 269.517 182.139 260.632 190.847 238.775L189.159 234.066L160.46 215.141L159.394 214.43C148.821 244.817 138.247 275.204 127.674 305.679Z" fill="url(#paint0_linear_3603_6)"/>
<path d="M157.794 219.228C161.793 222.516 167.212 226.425 174.143 229.801C179.829 232.556 185.16 234.333 189.514 235.488C189.869 237.265 190.136 239.131 190.491 240.908C192.89 255.923 193.334 270.051 192.624 283.2C205.862 285.422 221.5 287.199 239.27 287.199C254.463 287.199 268.057 286.044 279.874 284.267C280.941 264.364 282.096 244.462 283.162 224.559C286.805 184.31 283.606 153.479 276.32 142.373C270.901 134.11 263.97 131.355 263.97 131.355C258.195 129.045 252.597 129.756 249.488 130.378C240.336 130.556 232.873 131.444 227.542 132.333C216.524 134.021 206.751 135.62 195.644 141.307C189.514 144.416 184.449 147.082 179.563 152.413C172.277 160.498 171.566 168.406 167.124 186.443C165.169 194.261 162.237 205.545 157.794 219.228Z" fill="#48A2F5"/>
<path opacity="0.2" d="M203.819 185.021C203.819 185.021 195.111 232.556 194.223 234.155C194.045 234.688 193.867 235.132 193.69 235.666C193.245 235.754 192.712 235.754 192.179 235.754C191.202 235.754 190.313 235.666 189.514 235.577C190.225 239.042 191.113 243.662 191.557 248.016C192.268 254.591 192.357 257.256 192.357 257.256C192.357 258.145 192.357 258.411 192.446 258.411C192.89 258.322 195.467 242.685 203.819 185.021Z" fill="black"/>
</g>
<rect width="116" height="83" rx="4" fill="#2DDA93" fill-opacity="0.5"/>
<path d="M57.8047 22.1855H57.8486L59.1865 27H60.5781L62.4482 19.9541H60.9199L59.8066 25.0566H59.7676L58.4492 19.9541H57.2041L55.8857 25.0566H55.8467L54.7383 19.9541H53.21L55.0752 27H56.4668L57.8047 22.1855ZM67.9121 25.7793H64.7188V24.002H67.7314V22.8691H64.7188V21.1699H67.9121V19.9541H63.2441V27H67.9121V25.7793ZM73.5322 25.7793H70.4512V19.9541H68.9766V27H73.5322V25.7793ZM77.292 19.832C75.2021 19.832 73.8936 21.2334 73.8936 23.4795C73.8936 25.7207 75.2021 27.1221 77.292 27.1221C79.377 27.1221 80.6904 25.7207 80.6904 23.4795C80.6904 21.2334 79.377 19.832 77.292 19.832ZM77.292 21.0625C78.4443 21.0625 79.1816 22 79.1816 23.4795C79.1816 24.9541 78.4443 25.8867 77.292 25.8867C76.1348 25.8867 75.3975 24.9541 75.3975 23.4795C75.3975 22 76.1396 21.0625 77.292 21.0625ZM83.1172 27V24.8467L83.7764 24.0557L85.8662 27H87.6289L84.8408 23.0791L87.4482 19.9541H85.8076L83.1611 23.167H83.1172V19.9541H81.6426V27H83.1172Z" fill="white"/>
<rect x="53" y="39" width="30" height="1" rx="0.5" fill="white"/>
<rect x="53" y="45" width="38" height="1" rx="0.5" fill="white"/>
<rect x="100.5" y="39.5" width="6" height="6" rx="0.5" stroke="white"/>
<rect x="53" y="51" width="30" height="1" rx="0.5" fill="white"/>
<rect x="53" y="57" width="38" height="1" rx="0.5" fill="white"/>
<rect x="100.5" y="51.5" width="6" height="6" rx="0.5" stroke="white"/>
<rect x="53" y="63" width="30" height="1" rx="0.5" fill="white"/>
<rect x="53" y="69" width="38" height="1" rx="0.5" fill="white"/>
<rect x="100.5" y="63.5" width="6" height="6" rx="0.5" stroke="white"/>
<g clip-path="url(#clip1_3603_6)">
<path d="M25.0941 56.8768C24.9381 56.8968 24.7952 56.7865 24.7768 56.6303C23.9316 49.4666 25.83 42.0382 30.0166 36.166C30.1104 36.0343 30.2942 36.0069 30.4235 36.1039C30.5503 36.199 30.5771 36.3782 30.4851 36.5073C26.3819 42.2642 24.5113 49.5365 25.3419 56.5577C25.3604 56.714 25.2502 56.8568 25.0941 56.8768Z" fill="#456C0A"/>
<path d="M25.24 56.972C25.2356 57.1317 25.1027 57.2576 24.9429 57.2536C24.7825 57.2496 24.6559 57.1163 24.6604 56.9559C24.8456 50.293 25.0004 43.4272 23.0291 36.9275C22.8219 36.2256 22.5691 35.7977 22.2488 35.6077C22.1138 35.5276 22.0079 35.383 22.0356 35.2285C22.0639 35.0709 22.2177 34.9641 22.3653 35.026C23.0666 35.3204 23.3863 36.1345 23.5798 36.7536C25.5801 43.3402 25.4253 50.2648 25.24 56.972Z" fill="#456C0A"/>
<path d="M26.3973 56.435C26.2418 56.4589 26.096 56.3527 26.0748 56.1968C25.5496 52.3378 26.7278 48.2751 29.2321 45.2898C29.4637 45.012 29.7322 44.7248 30.0525 44.5245C30.1865 44.4408 30.3563 44.5076 30.4205 44.652C30.4847 44.7965 30.4188 44.9646 30.2892 45.0552C30.0747 45.2051 29.8785 45.4127 29.6669 45.6666C27.2645 48.5212 26.1299 52.3954 26.6391 56.107C26.6606 56.2639 26.5539 56.4109 26.3973 56.435Z" fill="#456C0A"/>
<path d="M24.8702 57.5367C24.8703 57.6963 24.7407 57.8261 24.5812 57.8261C24.4205 57.8261 24.2906 57.6945 24.2905 57.5339C24.2842 51.7449 23.2398 47.1717 21.116 43.5797C20.7392 42.9275 20.2464 42.2029 19.5653 41.6812C18.9774 41.2434 18.2923 41.0323 17.6777 41.1038C17.5173 41.1225 17.3559 41.0338 17.3121 40.8783C17.2679 40.7217 17.3596 40.5573 17.5206 40.5335C18.2949 40.4191 19.1653 40.6626 19.8986 41.2029C20.6667 41.7681 21.1885 42.5652 21.5943 43.2609C23.8046 46.9828 24.8643 51.6447 24.8702 57.5367Z" fill="#456C0A"/>
<path d="M25.7694 57.3985C25.6089 57.4025 25.4758 57.2755 25.4727 57.115C25.4009 53.397 25.2518 48.871 23.0803 45.3564C22.9974 45.2223 23.0332 45.0454 23.1644 44.958C23.2974 44.8693 23.4775 44.9061 23.5616 45.0419C25.8164 48.6829 25.9666 53.3118 26.0515 57.1032C26.0551 57.2627 25.9289 57.3945 25.7694 57.3985Z" fill="#456C0A"/>
<path d="M34.1805 58.2965C34.4252 55.9369 32.5742 53.884 30.2019 53.884H19.9912C17.6175 53.884 15.766 55.9393 16.0129 58.3001L16.8284 66.0972C17.0414 68.1342 18.7586 69.6811 20.8067 69.6811H29.3935C31.443 69.6811 33.1609 68.1321 33.3722 66.0936L34.1805 58.2965Z" fill="#7C5327"/>
<path d="M35.3991 55.0722C35.3539 55.6451 34.8758 56.0869 34.3011 56.0869H15.8955C15.3235 56.0869 14.8468 55.6492 14.798 55.0793C14.743 54.4363 15.2501 53.884 15.8955 53.884H34.3011C34.9436 53.884 35.4497 54.4317 35.3991 55.0722Z" fill="#936134"/>
<path d="M34.7391 47.3768C34.1268 44.0913 31.3042 42.7769 30.2674 42.3996C30.0155 42.3079 29.7642 42.2124 29.5167 42.1094C28.4576 41.6685 27.223 41.4793 26.2898 42.1014C25.6666 42.5217 25.3043 43.2318 24.9855 43.913C24.6666 44.5941 24.3768 45.3043 24.3623 46.0579C24.3527 46.5547 24.488 47.0704 24.7723 47.4638C25.0069 47.7884 25.4562 47.6219 25.65 47.2715C26.0134 46.6143 26.6053 47.2517 26.3708 47.9651C26.3527 48.0199 26.3354 48.0751 26.3188 48.1304C26.2463 48.3768 26.1884 48.6376 26.2608 48.884C26.3188 49.0869 26.4637 49.2463 26.6087 49.3912C27.3916 50.1873 28.3391 50.8071 29.3771 51.2294C29.57 51.3079 29.7849 51.212 29.8765 51.025C30.0659 50.6389 30.6383 50.937 30.6457 51.367C30.6467 51.4234 30.6488 51.4798 30.6521 51.5362C30.6666 51.6956 30.6811 51.855 30.7391 51.9999C30.8261 52.1883 30.9855 52.3333 31.1594 52.4492C32.2029 53.1739 33.5797 53.0724 34.8405 53.1159C36.6318 53.1885 38.413 53.625 40.0405 54.3916C40.6723 54.6892 40.675 54.6875 40.1136 54.2722C38.5352 53.1044 35.314 50.4029 34.7391 47.3768Z" fill="#548611"/>
<path d="M40.3334 50.6811C40.2464 50.2898 40.0725 49.9275 39.8841 49.5797C39.3581 48.5626 38.7 47.6116 37.9251 46.7722C37.8354 46.675 37.9522 46.5118 38.0678 46.5759C38.1595 46.6267 38.2676 46.5399 38.2294 46.4423C37.2164 43.8536 34.7852 41.8529 32.0435 41.3912C30.6137 41.1489 31.0008 42.585 32.175 43.4361C33.2503 44.2156 34.3732 45.4645 34.7392 47.3912C35.1952 49.7918 37.3164 51.988 38.9649 53.3764C39.588 53.9011 40.5204 53.2337 40.4783 52.4202C40.4348 51.826 40.4638 51.2463 40.3334 50.6811Z" fill="#456C0A"/>
<path d="M12.1306 44.7536C12.096 41.958 14.1608 40.3871 15.0001 39.8647C15.2272 39.7233 15.4525 39.5809 15.6758 39.4336C16.4794 38.9036 17.4549 38.559 18.319 38.9275C18.9132 39.1739 19.3335 39.7101 19.7103 40.2319C20.0871 40.7536 20.4495 41.2898 20.5799 41.9275C20.6639 42.329 20.6397 42.7725 20.4801 43.1458C20.3407 43.4717 19.923 43.4097 19.6933 43.1398C19.2698 42.6421 18.8859 43.2765 19.2066 43.846C19.2352 43.8969 19.2631 43.9482 19.29 44C19.3915 44.1884 19.4929 44.4058 19.4639 44.6232C19.4495 44.7971 19.348 44.9565 19.2466 45.1014C18.7218 45.9017 18.0308 46.5832 17.2273 47.1029C17.0855 47.1947 16.8998 47.1517 16.7974 47.0174C16.5825 46.7354 16.1475 47.0809 16.2104 47.4298C16.2185 47.4748 16.2258 47.52 16.2321 47.5652C16.2466 47.6956 16.261 47.8406 16.2321 47.971C16.1886 48.1449 16.0726 48.2898 15.9567 48.4203C15.2031 49.2029 14.0292 49.3478 12.9857 49.5942C11.2031 50.029 9.52192 50.884 8.13062 52.1014C8.14511 52.0869 12.1596 48.2609 12.1306 44.7536Z" fill="#456C0A"/>
<path d="M8.00002 48.4493C8.01451 48.116 8.08698 47.7681 8.18842 47.4493C8.45618 46.518 8.8455 45.6147 9.34888 44.7845C9.40679 44.689 9.27524 44.5705 9.18902 44.6415C9.12173 44.6969 9.02275 44.6411 9.03787 44.5552C9.44954 42.2174 11.1486 40.13 13.3623 39.2754C14.5196 38.8414 14.4365 40.1044 13.5975 41.0119C12.8268 41.8455 12.0952 43.0801 12.116 44.7536C12.1418 46.8371 10.7357 49.033 9.58971 50.4726C9.15521 51.0184 8.2726 50.6182 8.17393 49.9275C8.10147 49.4348 7.98553 48.942 8.00002 48.4493Z" fill="#548611"/>
<path d="M20.406 37.3333C20.1533 34.5878 22.0403 32.8803 22.8338 32.2902C23.0546 32.126 23.2735 31.9605 23.4908 31.7917C24.2353 31.2134 25.1725 30.8092 26.0437 31.0869C26.6524 31.2898 27.1162 31.7681 27.522 32.2608C27.9278 32.7391 28.3336 33.2463 28.522 33.855C28.6455 34.254 28.6506 34.7028 28.513 35.0872C28.3988 35.4061 27.9967 35.3793 27.7576 35.1393C27.3121 34.6921 26.9751 35.3496 27.3251 35.8748C27.3527 35.9162 27.3796 35.9579 27.406 36C27.522 36.1884 27.6379 36.3768 27.6234 36.5942C27.6234 36.7681 27.5364 36.9275 27.4495 37.0869C26.9901 37.9139 26.3642 38.6457 25.615 39.2286C25.484 39.3306 25.2975 39.3024 25.1868 39.1787C24.9554 38.92 24.5464 39.3021 24.6372 39.6371C24.6477 39.6757 24.6576 39.7146 24.6669 39.7536C24.6959 39.884 24.7249 40.0145 24.6959 40.1449C24.6669 40.3188 24.5654 40.4782 24.464 40.6087C23.7828 41.4348 22.6379 41.6666 21.6234 42C21.1434 42.1573 20.6734 42.3472 20.2179 42.5675C18.253 43.5178 18.2586 43.5611 19.2819 41.6331C19.9801 40.3175 20.5388 38.7701 20.406 37.3333Z" fill="#66990C"/>
<path d="M16.6378 41.3043C16.6233 40.971 16.6812 40.6376 16.7392 40.3043C16.9267 39.3549 17.247 38.434 17.6846 37.5645C17.7369 37.4606 17.6 37.3543 17.5162 37.4349C17.4506 37.4979 17.3434 37.4487 17.3519 37.3582C17.5708 35.0306 19.0762 32.8474 21.203 31.826C22.3093 31.2969 22.3255 32.5581 21.5686 33.5231C20.876 34.4061 20.2539 35.6819 20.4059 37.3333C20.5953 39.3907 19.3836 41.668 18.3685 43.1781C17.9835 43.7508 17.0818 43.4262 16.9276 42.7536C16.8117 42.2608 16.6522 41.7971 16.6378 41.3043Z" fill="#548611"/>
<path d="M21.8551 48.6666C20.9936 46.0476 22.4537 43.9658 23.0964 43.2149C23.2753 43.0058 23.4523 42.7961 23.6264 42.583C24.2254 41.8502 25.0469 41.2449 25.9565 41.3333C26.5942 41.3913 27.145 41.7681 27.6667 42.1449C28.1739 42.5217 28.6812 42.9275 29 43.4782C29.2082 43.8378 29.3175 44.2715 29.2715 44.6744C29.2327 45.0146 28.8298 45.0768 28.5401 44.8943C27.9977 44.5527 27.8199 45.2647 28.2898 45.7008C28.329 45.7371 28.3677 45.7741 28.4058 45.8116C28.5652 45.9565 28.7102 46.1304 28.7536 46.3478C28.7826 46.5217 28.7536 46.6956 28.6957 46.8695C28.4336 47.7737 27.9938 48.6304 27.387 49.3541C27.2783 49.4838 27.0899 49.4987 26.9518 49.401C26.6604 49.1947 26.3491 49.6502 26.5132 49.9674C26.5312 50.0021 26.5485 50.0372 26.5652 50.0724C26.6232 50.1884 26.6812 50.3188 26.6812 50.4492C26.6957 50.6231 26.6377 50.7971 26.5507 50.9565C26.0725 51.913 25.0145 52.3913 24.1015 52.942C22.8583 53.6787 21.7706 54.6622 20.9036 55.8127C20.4628 56.3976 20.472 56.4051 20.7726 55.7372C21.4831 54.1591 22.6224 51.0308 21.8551 48.6666Z" fill="#93C91C"/>
<path d="M19.058 53.3768C18.971 53.058 18.9421 52.7101 18.9421 52.3768C18.9186 51.402 19.0283 50.4272 19.2559 49.4909C19.2827 49.3807 19.1274 49.3082 19.0676 49.4045C19.0192 49.4826 18.8987 49.4614 18.8868 49.3704C18.5824 47.0427 19.5774 44.5959 21.4058 43.1304C22.3763 42.3783 22.6621 43.5852 22.1378 44.6954C21.6589 45.7094 21.3367 47.0908 21.8551 48.6667C22.5008 50.6294 21.822 53.1189 21.1644 54.8168C20.9146 55.462 19.9616 55.3434 19.6522 54.7246C19.4493 54.2753 19.1884 53.8551 19.058 53.3768Z" fill="#71B70B"/>
<path d="M33.7535 37.2609C33.5951 34.8501 31.7485 33.6061 30.947 33.1768C30.7079 33.0487 30.468 32.92 30.2297 32.7905C29.496 32.3919 28.635 32.1772 27.9129 32.5507C27.4057 32.8116 27.0724 33.3043 26.768 33.7971C26.4782 34.2753 26.1883 34.7826 26.1158 35.3478C26.0693 35.7104 26.1183 36.0969 26.2818 36.4116C26.4269 36.6907 26.7922 36.6056 26.9775 36.3515C27.321 35.8807 27.7042 36.4155 27.4561 36.9428C27.4337 36.9905 27.412 37.0385 27.3912 37.0869C27.3187 37.2609 27.2463 37.4638 27.2753 37.6522C27.3042 37.8116 27.3912 37.942 27.4927 38.058C28.0001 38.7215 28.6593 39.2682 29.3865 39.6772C29.5246 39.7548 29.6972 39.6989 29.7828 39.5656C29.9571 39.2944 30.3684 39.5799 30.3313 39.9001C30.3263 39.943 30.3221 39.986 30.3187 40.029C30.3042 40.1449 30.3042 40.2753 30.3477 40.3768C30.3912 40.5217 30.5071 40.6522 30.6231 40.7536C31.3332 41.3913 32.3767 41.4348 33.3187 41.5797C35.2928 41.8998 35.5971 41.5128 34.6022 39.7779C34.1465 38.9834 33.8101 38.1221 33.7535 37.2609Z" fill="#93C91C"/>
<path d="M37.6376 40.2319C37.6086 39.9275 37.5071 39.6377 37.4057 39.3623C37.1003 38.5519 36.6902 37.7796 36.1832 37.0761C36.1252 36.9958 36.2338 36.8866 36.3146 36.944C36.3785 36.9894 36.4614 36.9307 36.4421 36.8546C35.9267 34.8193 34.2767 33.1096 32.2752 32.5217C31.2249 32.2042 31.391 33.3163 32.1956 34.0624C32.9294 34.743 33.6567 35.7808 33.7535 37.2609C33.8741 39.0953 35.2639 40.9348 36.3719 42.1256C36.7858 42.5705 37.5383 42.157 37.5796 41.5507C37.6086 41.1014 37.681 40.6667 37.6376 40.2319Z" fill="#71B70B"/>
</g>
<defs>
<linearGradient id="paint0_linear_3603_6" x1="190.771" y1="277.077" x2="62.6244" y2="277.077" gradientUnits="userSpaceOnUse">
<stop stop-color="#FFA279"/>
<stop offset="0.3514" stop-color="#F7B390"/>
<stop offset="0.992608" stop-color="#F8BC9C"/>
</linearGradient>
<clipPath id="clip0_3603_6">
<rect width="68" height="95.4986" fill="white" transform="matrix(-0.992124 -0.12526 -0.12526 0.992124 261 56.5177)"/>
</clipPath>
<clipPath id="clip1_3603_6">
<rect width="33" height="40.5507" fill="white" transform="translate(8 31)"/>
</clipPath>
</defs>
</svg>
