<svg width="317" height="273" viewBox="0 0 317 273" fill="none" xmlns="http://www.w3.org/2000/svg">
<path d="M286 144.638C286 215.054 228.916 272.138 158.5 272.138C88.0837 272.138 31 215.054 31 144.638C31 74.2214 105.854 114.429 176.27 114.429C246.686 114.429 286 74.2214 286 144.638Z" fill="#2DDA93" fill-opacity="0.2"/>
<mask id="mask0_3603_7" style="mask-type:alpha" maskUnits="userSpaceOnUse" x="31" y="17" width="255" height="255">
<circle cx="158.5" cy="144.5" r="127.5" fill="#C4C4C4"/>
</mask>
<g mask="url(#mask0_3603_7)">
<g clip-path="url(#clip0_3603_7)">
<path d="M183.194 135.71C183.194 135.71 183.529 129.007 184.87 126.125C190.366 121.024 193.952 112.292 195.058 108.563C197.539 104.541 197.539 95.5589 197.471 92.3414C197.404 91.6041 197.404 91.2019 197.404 91.2019C197.069 85.3032 180.178 45.2861 149.478 55.6758C123.604 64.4568 121.459 82.8901 119.783 99.5137C119.582 101.189 119.448 102.865 119.247 104.474C119.046 105.882 118.912 107.222 118.711 108.563C116.03 126.996 94.5128 141.609 94.5128 141.609L108.991 174.722C108.991 174.722 149.88 180.62 150.885 180.755C151.891 180.889 150.684 172.108 150.684 172.108C150.684 172.108 146.797 169.359 145.925 167.482C145.724 167.013 145.791 166.209 145.992 165.27C146.595 162.589 148.405 158.701 148.807 157.897C148.874 157.83 148.874 157.763 148.874 157.763C148.874 157.763 155.51 161.316 160.404 161.651C165.297 161.986 167.442 153.406 167.442 153.406C176.491 150.256 172.804 146.569 174.949 145.228C177.027 143.888 183.194 135.71 183.194 135.71Z" fill="#F7AF8B"/>
<path d="M207.191 273.592H31.5043C31.5043 273.592 31.3033 230.625 33.7164 212.326C36.1965 194.026 52.4849 159.841 70.5831 149.988C88.2121 140.402 88.2791 139.598 95.9206 139.933C94.647 140 92.3009 140.737 98.8029 147.105C107.048 155.149 120.32 164.533 120.32 164.533C120.32 164.533 140.563 183.905 151.221 171.504C151.69 170.298 152.159 168.823 152.36 166.946C152.762 163.461 151.958 160.578 151.422 158.97C153.567 159.908 155.444 160.511 156.784 160.846C159.666 161.584 161.141 161.919 162.482 161.249C164.023 160.444 165.23 158.567 165.431 158.232C165.967 157.428 165.9 157.16 166.101 157.026C167.71 155.752 179.574 163.26 186.948 175.66C195.729 190.407 196.533 209.443 196.533 209.443L199.617 227.944L201.158 236.993L201.627 239.808L203.169 249.192L203.236 249.729L204.309 256.298L204.51 257.504L205.247 262.062L207.191 273.592Z" fill="#48A2F5"/>
<path d="M41.0897 188.53C41.0897 188.53 55.5012 180.285 76.951 195.568L77.9564 197.914C77.9564 197.914 59.5231 183.503 39.9502 191.144L41.0897 188.53Z" fill="white"/>
<path d="M32.8449 220.973C37.2689 220.034 42.4972 219.297 48.463 219.23C62.1372 219.163 73.1301 222.85 80.1013 225.866C80.1683 226.536 80.3024 227.207 80.3694 227.877C77.286 226.67 73.9345 225.531 70.2478 224.592C55.3 220.839 42.028 222.112 32.7778 224.056C32.8449 223.051 32.8449 222.045 32.8449 220.973Z" fill="white"/>
<path d="M31.9735 251.203C36.5986 250.265 42.0951 249.528 48.2619 249.461C63.7459 249.394 76.1466 253.751 83.9221 257.303C84.0561 258.242 84.1232 259.18 84.2572 260.118C80.5035 258.175 76.0795 256.298 70.9852 254.823C54.6968 250.131 40.3523 252.209 31.9735 254.287C31.9735 253.281 31.9735 252.276 31.9735 251.203Z" fill="white"/>
<path d="M76.9509 195.568C76.9509 195.568 113.214 171.236 192.444 190.34L193.115 192.954C193.115 192.954 129.034 173.448 77.9564 197.914L76.9509 195.568Z" fill="white"/>
<path d="M82.8496 225.665C92.1668 222.85 102.49 220.369 113.885 218.694C149.344 213.465 179.843 217.889 201.359 223.252L202.03 225.866C191.037 222.917 178.1 220.369 163.621 219.163C130.24 216.482 102.355 222.179 83.3188 227.877C83.1847 227.207 83.0507 226.402 82.8496 225.665Z" fill="white"/>
<path d="M87.1396 258.242C95.3173 254.689 104.702 251.337 115.426 248.991C152.427 240.613 184.334 247.651 202.901 253.55L203.571 256.164C192.847 253.147 179.91 250.466 165.163 249.461C131.715 247.182 104.299 254.354 86.8715 260.722C86.9385 259.85 87.0055 259.046 87.1396 258.242Z" fill="white"/>
<path d="M265.507 159.507C265.507 159.507 255.453 173.248 253.71 174.924C251.967 176.6 272.814 187.526 272.814 187.526L265.507 159.507Z" fill="#F2F2F3"/>
<path d="M159.532 243.697L215.771 162.188C215.771 162.188 264.77 182.834 271.071 192.218C271.071 192.218 272.412 190.274 277.305 190.542C277.305 190.542 266.848 179.013 270.602 160.513L271.473 160.915C271.54 164.736 271.875 169.16 272.881 174.12C274.154 180.756 276.165 186.252 278.042 190.542C255.52 219.432 232.931 248.389 210.408 277.28L159.532 243.697Z" fill="#2DDA93"/>
<path d="M216.642 162.591C216.642 162.591 222.005 157.429 222.541 157.228C223.077 157.027 266.915 179.817 269.127 183.839C269.127 183.839 259.542 166.612 265.775 159.172L270.535 160.513C270.535 160.513 272.344 180.488 274.489 183.839C276.634 187.191 277.238 190.542 277.238 190.542L270.334 193.29L216.642 162.591Z" fill="white"/>
<path d="M204.443 248.924C201.158 250.265 198.611 251.203 198.142 251.338C198.075 251.338 201.292 250.533 204.577 249.461C218.72 245.037 222.474 242.892 224.418 244.769C225.624 245.908 225.691 248.254 224.887 249.528C224.016 250.868 222.474 250.533 218.854 251.27C216.039 251.807 212.62 253.214 205.716 256.03C204.912 256.365 204.51 256.432 204.108 256.7C202.834 257.638 195.192 261.392 194.187 261.928C195.192 261.459 202.499 258.309 205.917 257.236C206.051 257.169 206.521 256.968 207.258 256.901C207.794 256.834 208.397 256.767 208.867 256.968C209.738 257.37 210.207 258.711 210.006 259.649C209.671 261.124 207.727 261.794 206.789 262.129C203.236 263.47 200.086 265.816 196.466 267.023C192.98 268.229 188.087 270.106 181.92 273.391H157.79C154.237 268.698 151.221 260.588 152.829 247.919C152.829 247.919 163.755 234.781 167.576 232.435C167.576 232.435 164.828 234.714 166.101 235.921C167.375 237.127 183.931 234.58 199.482 228.279C199.952 228.078 200.488 227.877 200.957 227.676C212.888 222.85 215.838 220.705 218.653 222.112C218.921 222.246 220.798 223.185 220.932 224.726C221.401 229.15 207.258 234.781 203.973 236.055C203.906 236.055 203.303 236.323 202.432 236.658C197.539 238.669 191.774 241.283 194.053 242.691C194.991 243.227 198.544 241.685 202.901 239.54C202.901 239.54 211.079 234.58 223.546 231.228C224.82 230.893 227.099 230.29 228.641 231.564C229.646 232.368 230.249 233.843 230.048 235.116C229.579 238.065 225.088 238.2 216.977 242.221C211.146 245.104 210.609 246.377 204.443 248.924Z" fill="#F7AF8B"/>
<path opacity="0.4" d="M78.8279 210.784C78.8279 210.784 89.3516 249.796 86.7375 261.124C86.7375 261.124 122.197 258.041 124.14 259.917C126.084 261.794 92.234 261.459 84.4584 262.532C84.5255 262.532 79.4312 217.889 78.8279 210.784Z" fill="black"/>
<path d="M158.125 273.592H125.414C124.676 268.028 123.805 260.655 124.207 259.85C124.878 258.51 144.987 252.879 149.746 248.254C153.634 244.5 153.298 261.794 158.125 273.592Z" fill="#4194E0"/>
<path d="M145.791 166.611C145.791 164.241 147.802 159.908 148.808 157.562L151.489 158.903C154.17 164.801 152.494 171.303 150.483 172.309C148.919 171.08 145.791 168.957 145.791 166.611Z" fill="#F7AF8B"/>
<path d="M151.355 158.903C145.121 152.535 137.345 144.089 133.391 137.788C133.391 144.491 146.126 161.137 152.494 168.622C153.406 162.991 152.114 159.796 151.355 158.903Z" fill="black" fill-opacity="0.2"/>
<path d="M220.931 184.864L217.488 191.012L218.775 191.732L219.86 189.794L221.011 190.438C222.306 191.163 223.677 190.823 224.383 189.562C225.092 188.296 224.693 186.97 223.432 186.264L220.931 184.864ZM221.647 186.602L222.521 187.092C223.258 187.504 223.464 188.135 223.073 188.833C222.679 189.536 222.03 189.687 221.293 189.275L220.423 188.788L221.647 186.602ZM227.453 195.192L224.765 193.687L227.611 188.604L226.324 187.884L222.882 194.032L226.857 196.257L227.453 195.192ZM231.646 198.939L233.013 199.705L234.317 192.359L232.804 191.512L227.228 196.465L228.548 197.205L229.852 195.976L232.012 197.185L231.646 198.939ZM232.866 193.091L232.896 193.108L232.274 196.067L230.668 195.168L232.866 193.091ZM234.875 200.747L237.129 196.721L237.168 196.743L237.789 202.379L238.854 202.975L242.297 196.828L241.065 196.138L238.823 200.143L238.789 200.124L238.16 194.511L237.086 193.91L233.644 200.058L234.875 200.747ZM242.637 205.094L245.486 200.007L247.267 201.004L247.861 199.943L243.017 197.231L242.423 198.292L244.199 199.286L241.351 204.373L242.637 205.094Z" fill="white"/>
<path d="M179.5 120.5C181 126.445 183 133.33 183 135.312C183 137.294 177 137.128 174 136.798" stroke="black" stroke-opacity="0.2"/>
<path d="M174.5 146C173 146.167 169.2 146.1 166 144.5" stroke="#B55F34"/>
<path d="M184.5 113C186.333 112.5 191.1 113.1 193.5 115.5" stroke="black" stroke-width="1.5"/>
<path d="M190 119.5C190 120.5 189 121 188.5 122C187.395 122 187 121.605 187 120.5C187 119.395 187.895 118.5 189 118.5C190 118.5 190 119.437 190 119.5Z" fill="black"/>
</g>
</g>
<rect width="116" height="83" rx="4" fill="#2DDA93" fill-opacity="0.5"/>
<path d="M34.327 45.7404C35.6539 45.4519 37.7885 45.3365 40.8462 46.3461C37.1539 47.4423 34.9905 47.2692 33.8366 46.9231C34.6155 47.4711 35.7405 48.8269 34.9328 52.0865C32.6828 50.1827 32.4808 48.5961 32.6828 47.6154C31.9039 48.5961 30.3751 49.8942 27.4328 51.2211C28.9039 48.6538 30.4905 47.3269 31.6732 46.6635C30.4328 46.5481 28.6155 45.9423 26.9424 43.7788C31.0674 44.0096 32.452 45.1923 32.9135 45.9423C32.7693 45.0769 33.0578 43.3173 36.0578 40.6058C36.202 43.2885 35.1924 44.875 34.327 45.7404Z" fill="#486D33"/>
<path d="M36.9232 39.9712C34.4712 42.8558 33.1443 46.6635 33.202 50.4423" stroke="#486D33" stroke-width="3" stroke-miterlimit="10"/>
<path d="M31.5578 40.4904C29.7693 43.9231 28.9039 47.8462 29.077 51.7404" stroke="#486D33" stroke-width="3" stroke-miterlimit="10"/>
<path d="M20.9712 40.5769C21.1443 40.6346 21.2885 40.7212 21.4616 40.8365C23.1058 41.9615 24.202 43.7789 24.8366 45.6827C25.4712 47.5865 25.6731 49.5769 25.875 51.5673" stroke="#486D33" stroke-width="3" stroke-miterlimit="10"/>
<path d="M23.8558 34.3462C25.5866 39.7692 26.5097 45.4231 26.5385 51.1346" stroke="#486D33" stroke-width="3" stroke-miterlimit="10"/>
<path d="M34.5866 31.4039C34.2116 31.5192 33.9231 31.8365 33.6635 32.125C32.625 33.3077 31.5866 34.4904 30.8654 35.9039C30.5481 36.5385 30.2885 37.2308 30.0866 37.9231C28.6731 42.3365 28.1827 47.0096 28.0962 51.625" stroke="#486D33" stroke-width="3" stroke-miterlimit="10"/>
<path d="M32.5673 41.7308C34.1827 42.1346 36.7789 42.3077 40.5289 41.1538C36.0577 39.7115 33.4039 39.8846 31.9904 40.2885C32.9712 39.6538 34.3558 38.0096 33.4616 34C30.6923 36.2788 30.4039 38.1827 30.6058 39.3942C29.6827 38.1827 27.8654 36.5673 24.3173 34.8654C26.077 38.0385 27.952 39.6827 29.3654 40.5481C27.8654 40.6635 25.6154 41.3558 23.5096 43.9519C28.5289 43.75 30.2596 42.3654 30.8654 41.4712C30.6635 42.5385 30.9808 44.6731 34.5577 48.0769C34.7885 44.7596 33.6058 42.7981 32.5673 41.7308Z" fill="#56873D"/>
<path d="M19.9904 41.2115C18.4038 41.6731 15.7788 41.9327 12 40.9231C16.4135 39.3365 19.0673 39.4231 20.5096 39.7692C19.5 39.1635 18.0865 37.5769 18.8365 33.5385C21.6923 35.7019 22.0385 37.6346 21.8654 38.8173C22.7596 37.5769 24.5192 35.9038 28.0096 34.0865C26.3654 37.2885 24.5481 39.0192 23.1635 39.9135C24.6635 39.9711 26.9423 40.5769 29.1346 43.1154C24.1154 43.0865 22.3269 41.7596 21.7212 40.8654C21.9519 41.9038 21.7212 44.0673 18.2308 47.5865C17.8558 44.2981 18.9808 42.3077 19.9904 41.2115Z" fill="#70B744"/>
<path d="M34.3847 41.2404C32.7981 40.75 30.4904 39.5385 27.8943 36.5962C32.452 37.7212 34.6154 39.25 35.6251 40.3173C35.1347 39.25 34.8174 37.1442 37.6443 34.2019C38.827 37.5769 38.077 39.3942 37.2693 40.2885C38.6827 39.7404 41.1058 39.3077 45.0001 39.7116C41.8558 41.5 39.4039 41.9327 37.7308 41.9039C38.9424 42.7981 40.5001 44.5289 40.9616 47.8462C36.7789 45.0481 36.0289 42.9712 36.0001 41.875C35.6251 42.8846 34.2404 44.5577 29.3943 45.5673C30.8943 42.6539 32.9424 41.6154 34.3847 41.2404Z" fill="#70B744"/>
<path d="M35.2789 33.7115C36.7212 34.4904 39.202 35.3269 43.125 35.1827C39.1443 32.6731 36.5481 32.1538 35.077 32.1827C36.1731 31.8077 37.9327 30.5673 38.077 26.4712C34.8174 27.9712 34.0385 29.7596 33.952 30.9712C33.3462 29.5577 31.9904 27.5385 29.0193 25C29.9135 28.4904 31.2981 30.5673 32.452 31.75C30.952 31.4904 28.6154 31.5769 25.9327 33.5385C30.8366 34.6346 32.8558 33.7115 33.6635 32.9904C33.202 33.9712 32.9712 36.1346 35.5674 40.3173C36.6635 37.1731 36.0001 34.9808 35.2789 33.7115Z" fill="#94C93D"/>
<path d="M22.5577 35.125C21.2596 35.5288 19.125 35.7885 16.0096 35.0096C19.6154 33.6538 21.7789 33.6827 22.9616 33.9423C22.125 33.4519 20.9423 32.1827 21.4904 28.8654C23.8558 30.5962 24.1731 32.1827 24.0577 33.1635C24.7789 32.125 26.1923 30.7404 29.0193 29.1827C27.7212 31.8365 26.25 33.2788 25.125 34.0288C26.3654 34.0577 28.2116 34.5192 30.0577 36.5673C25.9327 36.625 24.4616 35.5577 23.9423 34.8365C24.1443 35.7019 23.9712 37.4615 21.202 40.4038C20.8558 37.6923 21.75 36.0481 22.5577 35.125Z" fill="#94C93D"/>
<path d="M38.7115 49.3173H19.7885L21.4038 64.9808H37.0673L38.7115 49.3173Z" fill="#7D5426"/>
<path d="M39.375 51.5096H19.0962L18.9231 49.3173H39.5481L39.375 51.5096Z" fill="#956235"/>
<path d="M27 46.1154C28.3558 46.2596 30.4327 46.8365 33 48.7404C29.1346 48.625 27.1442 47.7596 26.1635 47.0673C26.7404 47.8173 27.375 49.4615 25.5865 52.3173C24.0577 49.8077 24.375 48.25 24.8654 47.3846C23.8269 48.0481 21.9519 48.8269 18.75 49.1731C20.9712 47.2115 22.875 46.4327 24.2019 46.1731C23.0769 45.6827 21.5192 44.5289 20.5962 41.9615C24.4327 43.4904 25.3846 45.0192 25.5865 45.8846C25.7308 45.0192 26.5385 43.4327 30.2596 41.7885C29.5385 44.3846 28.0673 45.5673 27 46.1154Z" fill="#94C93D"/>
<path d="M53.3223 24.9932C53.3662 26.3164 54.4453 27.1221 56.1396 27.1221C57.8877 27.1221 58.9961 26.2578 58.9961 24.8906C58.9961 23.8164 58.3809 23.2109 56.9697 22.9082L56.1152 22.7275C55.3047 22.542 54.9629 22.2979 54.9629 21.8633C54.9629 21.3408 55.4512 20.9941 56.1787 20.9941C56.916 20.9941 57.4385 21.3555 57.4873 21.9512H58.8691C58.8447 20.6768 57.8145 19.832 56.1738 19.832C54.6016 19.832 53.4785 20.6914 53.4785 21.9902C53.4785 23.0205 54.1182 23.6797 55.417 23.958L56.335 24.1582C57.1846 24.3486 57.5215 24.6025 57.5215 25.0615C57.5215 25.5791 56.9844 25.9551 56.1982 25.9551C55.417 25.9551 54.8115 25.5742 54.7432 24.9932H53.3223ZM61.3789 19.9541H59.9043V24.5098C59.9043 26.0625 61.0518 27.1221 62.8584 27.1221C64.6602 27.1221 65.8076 26.0625 65.8076 24.5098V19.9541H64.333V24.3633C64.333 25.2666 63.8008 25.8574 62.8584 25.8574C61.9111 25.8574 61.3789 25.2666 61.3789 24.3633V19.9541ZM68.459 27V24.8467L69.1182 24.0557L71.208 27H72.9707L70.1826 23.0791L72.79 19.9541H71.1494L68.5029 23.167H68.459V19.9541H66.9844V27H68.459ZM78.2637 25.7793H75.0703V24.002H78.083V22.8691H75.0703V21.1699H78.2637V19.9541H73.5957V27H78.2637V25.7793ZM82.4873 27V21.1699H84.5283V19.9541H78.9766V21.1699H81.0127V27H82.4873Z" fill="white"/>
<rect x="64" y="39" width="40" height="1" rx="0.5" fill="white"/>
<rect x="53" y="45" width="51" height="1" rx="0.5" fill="white"/>
<rect x="53" y="51" width="51" height="1" rx="0.5" fill="white"/>
<rect x="53" y="57" width="51" height="1" rx="0.5" fill="white"/>
<rect x="53" y="63" width="51" height="1" rx="0.5" fill="white"/>
<rect x="201" width="116" height="83" rx="4" fill="#2DDA93" fill-opacity="0.5"/>
<g clip-path="url(#clip1_3603_7)">
<path d="M230.094 51.8768C229.938 51.8968 229.795 51.7865 229.777 51.6303C228.932 44.4666 230.83 37.0382 235.017 31.166C235.111 31.0343 235.294 31.0069 235.424 31.1039C235.55 31.199 235.577 31.3782 235.485 31.5073C231.382 37.2642 229.511 44.5365 230.342 51.5577C230.36 51.714 230.25 51.8568 230.094 51.8768Z" fill="#456C0A"/>
<path d="M230.24 51.972C230.235 52.1317 230.103 52.2576 229.943 52.2536C229.782 52.2496 229.656 52.1163 229.66 51.9559C229.845 45.293 230 38.4272 228.029 31.9275C227.822 31.2256 227.569 30.7977 227.249 30.6077C227.114 30.5276 227.008 30.383 227.036 30.2285C227.064 30.0709 227.218 29.9641 227.365 30.026C228.067 30.3204 228.386 31.1345 228.58 31.7536C230.58 38.3402 230.425 45.2648 230.24 51.972Z" fill="#456C0A"/>
<path d="M231.397 51.435C231.242 51.4589 231.096 51.3527 231.075 51.1968C230.549 47.3378 231.728 43.2751 234.232 40.2898C234.464 40.012 234.732 39.7248 235.052 39.5245C235.186 39.4408 235.356 39.5076 235.42 39.652C235.485 39.7965 235.419 39.9646 235.289 40.0552C235.075 40.2051 234.878 40.4127 234.667 40.6666C232.264 43.5212 231.13 47.3954 231.639 51.107C231.661 51.2639 231.554 51.4109 231.397 51.435Z" fill="#456C0A"/>
<path d="M229.87 52.5367C229.87 52.6963 229.741 52.8261 229.581 52.8261C229.421 52.8261 229.291 52.6945 229.29 52.5339C229.284 46.7449 228.24 42.1717 226.116 38.5797C225.739 37.9275 225.246 37.2029 224.565 36.6812C223.977 36.2434 223.292 36.0323 222.678 36.1038C222.517 36.1225 222.356 36.0338 222.312 35.8783C222.268 35.7217 222.36 35.5573 222.521 35.5335C223.295 35.4191 224.165 35.6626 224.899 36.2029C225.667 36.7681 226.188 37.5652 226.594 38.2609C228.805 41.9828 229.864 46.6447 229.87 52.5367Z" fill="#456C0A"/>
<path d="M230.769 52.3985C230.609 52.4025 230.476 52.2755 230.473 52.115C230.401 48.397 230.252 43.871 228.08 40.3564C227.997 40.2223 228.033 40.0454 228.164 39.958C228.297 39.8693 228.477 39.9061 228.562 40.0419C230.816 43.6829 230.967 48.3118 231.052 52.1032C231.055 52.2627 230.929 52.3945 230.769 52.3985Z" fill="#456C0A"/>
<path d="M239.18 53.2965C239.425 50.9369 237.574 48.884 235.202 48.884H224.991C222.617 48.884 220.766 50.9393 221.013 53.3001L221.828 61.0972C222.041 63.1342 223.758 64.6811 225.806 64.6811H234.393C236.443 64.6811 238.161 63.1321 238.372 61.0936L239.18 53.2965Z" fill="#7C5327"/>
<path d="M240.399 50.0722C240.354 50.6451 239.876 51.0869 239.301 51.0869H220.895C220.323 51.0869 219.847 50.6492 219.798 50.0793C219.743 49.4363 220.25 48.884 220.895 48.884H239.301C239.943 48.884 240.45 49.4317 240.399 50.0722Z" fill="#936134"/>
<path d="M239.739 42.3768C239.127 39.0913 236.304 37.7769 235.268 37.3996C235.016 37.3079 234.764 37.2124 234.517 37.1094C233.458 36.6685 232.223 36.4793 231.29 37.1014C230.667 37.5217 230.304 38.2318 229.986 38.913C229.667 39.5941 229.377 40.3043 229.362 41.0579C229.353 41.5547 229.488 42.0704 229.772 42.4638C230.007 42.7884 230.456 42.6219 230.65 42.2715C231.014 41.6143 231.605 42.2517 231.371 42.9651C231.353 43.0199 231.336 43.0751 231.319 43.1304C231.246 43.3768 231.188 43.6376 231.261 43.884C231.319 44.0869 231.464 44.2463 231.609 44.3912C232.392 45.1873 233.339 45.8071 234.377 46.2294C234.57 46.3079 234.785 46.212 234.877 46.025C235.066 45.6389 235.638 45.937 235.646 46.367C235.647 46.4234 235.649 46.4798 235.652 46.5362C235.667 46.6956 235.681 46.855 235.739 46.9999C235.826 47.1883 235.986 47.3333 236.16 47.4492C237.203 48.1739 238.58 48.0724 239.841 48.1159C241.632 48.1885 243.413 48.625 245.041 49.3916C245.672 49.6892 245.675 49.6875 245.114 49.2722C243.535 48.1044 240.314 45.4029 239.739 42.3768Z" fill="#548611"/>
<path d="M245.334 45.6811C245.247 45.2898 245.073 44.9275 244.884 44.5797C244.358 43.5626 243.7 42.6116 242.925 41.7722C242.836 41.675 242.952 41.5118 243.068 41.5759C243.16 41.6267 243.268 41.5399 243.23 41.4423C242.217 38.8536 239.785 36.8529 237.044 36.3912C235.614 36.1489 236.001 37.585 237.175 38.4361C238.25 39.2156 239.373 40.4645 239.739 42.3912C240.195 44.7918 242.317 46.988 243.965 48.3764C244.588 48.9011 245.521 48.2337 245.478 47.4202C245.435 46.826 245.464 46.2463 245.334 45.6811Z" fill="#456C0A"/>
<path d="M217.13 39.7536C217.096 36.958 219.161 35.3871 220 34.8647C220.227 34.7233 220.452 34.5809 220.676 34.4336C221.479 33.9036 222.455 33.559 223.319 33.9275C223.913 34.1739 224.333 34.7101 224.71 35.2319C225.087 35.7536 225.449 36.2898 225.58 36.9275C225.664 37.329 225.64 37.7725 225.48 38.1458C225.341 38.4717 224.923 38.4097 224.693 38.1398C224.27 37.6421 223.886 38.2765 224.206 38.846C224.235 38.8969 224.263 38.9482 224.29 39C224.391 39.1884 224.493 39.4058 224.464 39.6232C224.449 39.7971 224.348 39.9565 224.246 40.1014C223.722 40.9017 223.031 41.5832 222.227 42.1029C222.085 42.1947 221.9 42.1517 221.797 42.0174C221.582 41.7354 221.147 42.0809 221.21 42.4298C221.218 42.4748 221.226 42.52 221.232 42.5652C221.246 42.6956 221.261 42.8406 221.232 42.971C221.188 43.1449 221.073 43.2898 220.957 43.4203C220.203 44.2029 219.029 44.3478 217.986 44.5942C216.203 45.029 214.522 45.884 213.13 47.1014C213.145 47.0869 217.159 43.2609 217.13 39.7536Z" fill="#456C0A"/>
<path d="M213 43.4493C213.015 43.116 213.087 42.7681 213.188 42.4493C213.456 41.518 213.846 40.6147 214.349 39.7845C214.407 39.689 214.275 39.5705 214.189 39.6415C214.122 39.6969 214.023 39.6411 214.038 39.5552C214.45 37.2174 216.149 35.13 218.362 34.2754C219.52 33.8414 219.437 35.1044 218.597 36.0119C217.827 36.8455 217.095 38.0801 217.116 39.7536C217.142 41.8371 215.736 44.033 214.59 45.4726C214.155 46.0184 213.273 45.6182 213.174 44.9275C213.101 44.4348 212.986 43.942 213 43.4493Z" fill="#548611"/>
<path d="M225.406 32.3333C225.153 29.5878 227.04 27.8803 227.834 27.2902C228.055 27.126 228.274 26.9605 228.491 26.7917C229.235 26.2134 230.172 25.8092 231.044 26.0869C231.652 26.2898 232.116 26.7681 232.522 27.2608C232.928 27.7391 233.334 28.2463 233.522 28.855C233.645 29.254 233.651 29.7028 233.513 30.0872C233.399 30.4061 232.997 30.3793 232.758 30.1393C232.312 29.6921 231.975 30.3496 232.325 30.8748C232.353 30.9162 232.38 30.9579 232.406 31C232.522 31.1884 232.638 31.3768 232.623 31.5942C232.623 31.7681 232.536 31.9275 232.449 32.0869C231.99 32.9139 231.364 33.6457 230.615 34.2286C230.484 34.3306 230.297 34.3024 230.187 34.1787C229.955 33.92 229.546 34.3021 229.637 34.6371C229.648 34.6757 229.658 34.7146 229.667 34.7536C229.696 34.884 229.725 35.0145 229.696 35.1449C229.667 35.3188 229.565 35.4782 229.464 35.6087C228.783 36.4348 227.638 36.6666 226.623 37C226.143 37.1573 225.673 37.3472 225.218 37.5675C223.253 38.5178 223.259 38.5611 224.282 36.6331C224.98 35.3175 225.539 33.7701 225.406 32.3333Z" fill="#66990C"/>
<path d="M221.638 36.3043C221.623 35.971 221.681 35.6376 221.739 35.3043C221.927 34.3549 222.247 33.434 222.685 32.5645C222.737 32.4606 222.6 32.3543 222.516 32.4349C222.451 32.4979 222.343 32.4487 222.352 32.3582C222.571 30.0306 224.076 27.8474 226.203 26.826C227.309 26.2969 227.326 27.5581 226.569 28.5231C225.876 29.4061 225.254 30.6819 225.406 32.3333C225.595 34.3907 224.384 36.668 223.368 38.1781C222.983 38.7508 222.082 38.4262 221.928 37.7536C221.812 37.2608 221.652 36.7971 221.638 36.3043Z" fill="#548611"/>
<path d="M226.855 43.6666C225.994 41.0476 227.454 38.9658 228.097 38.2149C228.275 38.0058 228.452 37.7961 228.627 37.583C229.226 36.8502 230.047 36.2449 230.957 36.3333C231.594 36.3913 232.145 36.7681 232.667 37.1449C233.174 37.5217 233.681 37.9275 234 38.4782C234.208 38.8378 234.318 39.2715 234.272 39.6744C234.233 40.0146 233.83 40.0768 233.54 39.8943C232.998 39.5527 232.82 40.2647 233.29 40.7008C233.329 40.7371 233.368 40.7741 233.406 40.8116C233.565 40.9565 233.71 41.1304 233.754 41.3478C233.783 41.5217 233.754 41.6956 233.696 41.8695C233.434 42.7737 232.994 43.6304 232.387 44.3541C232.278 44.4838 232.09 44.4987 231.952 44.401C231.661 44.1947 231.349 44.6502 231.513 44.9674C231.531 45.0021 231.549 45.0372 231.565 45.0724C231.623 45.1884 231.681 45.3188 231.681 45.4492C231.696 45.6231 231.638 45.7971 231.551 45.9565C231.073 46.913 230.015 47.3913 229.102 47.942C227.858 48.6787 226.771 49.6622 225.904 50.8127C225.463 51.3976 225.472 51.4051 225.773 50.7372C226.483 49.1591 227.623 46.0308 226.855 43.6666Z" fill="#93C91C"/>
<path d="M224.058 48.3768C223.971 48.058 223.942 47.7101 223.942 47.3768C223.919 46.402 224.028 45.4272 224.256 44.4909C224.283 44.3807 224.128 44.3082 224.068 44.4045C224.019 44.4826 223.899 44.4614 223.887 44.3704C223.583 42.0427 224.578 39.5959 226.406 38.1304C227.376 37.3783 227.662 38.5852 227.138 39.6954C226.659 40.7094 226.337 42.0908 226.855 43.6667C227.501 45.6294 226.822 48.1189 226.165 49.8168C225.915 50.462 224.962 50.3434 224.652 49.7246C224.449 49.2753 224.189 48.8551 224.058 48.3768Z" fill="#71B70B"/>
<path d="M238.754 32.2609C238.595 29.8501 236.748 28.6061 235.947 28.1768C235.708 28.0487 235.468 27.92 235.23 27.7905C234.496 27.3919 233.635 27.1772 232.913 27.5507C232.406 27.8116 232.072 28.3043 231.768 28.7971C231.478 29.2753 231.188 29.7826 231.116 30.3478C231.069 30.7104 231.118 31.0969 231.282 31.4116C231.427 31.6907 231.792 31.6056 231.978 31.3515C232.321 30.8807 232.704 31.4155 232.456 31.9428C232.434 31.9905 232.412 32.0385 232.391 32.0869C232.319 32.2609 232.246 32.4638 232.275 32.6522C232.304 32.8116 232.391 32.942 232.493 33.058C233 33.7215 233.659 34.2682 234.386 34.6772C234.525 34.7548 234.697 34.6989 234.783 34.5656C234.957 34.2944 235.368 34.5799 235.331 34.9001C235.326 34.943 235.322 34.986 235.319 35.029C235.304 35.1449 235.304 35.2753 235.348 35.3768C235.391 35.5217 235.507 35.6522 235.623 35.7536C236.333 36.3913 237.377 36.4348 238.319 36.5797C240.293 36.8998 240.597 36.5128 239.602 34.7779C239.147 33.9834 238.81 33.1221 238.754 32.2609Z" fill="#93C91C"/>
<path d="M242.638 35.2319C242.609 34.9275 242.507 34.6377 242.406 34.3623C242.1 33.5519 241.69 32.7796 241.183 32.0761C241.125 31.9958 241.234 31.8866 241.315 31.944C241.379 31.9894 241.461 31.9307 241.442 31.8546C240.927 29.8193 239.277 28.1096 237.275 27.5217C236.225 27.2042 236.391 28.3163 237.196 29.0624C237.93 29.743 238.657 30.7808 238.754 32.2609C238.874 34.0953 240.264 35.9348 241.372 37.1256C241.786 37.5705 242.538 37.157 242.58 36.5507C242.609 36.1014 242.681 35.6667 242.638 35.2319Z" fill="#71B70B"/>
</g>
<path d="M258.805 22.1855H258.849L260.187 27H261.578L263.448 19.9541H261.92L260.807 25.0566H260.768L259.449 19.9541H258.204L256.886 25.0566H256.847L255.738 19.9541H254.21L256.075 27H257.467L258.805 22.1855ZM268.912 25.7793H265.719V24.002H268.731V22.8691H265.719V21.1699H268.912V19.9541H264.244V27H268.912V25.7793ZM274.532 25.7793H271.451V19.9541H269.977V27H274.532V25.7793ZM278.292 19.832C276.202 19.832 274.894 21.2334 274.894 23.4795C274.894 25.7207 276.202 27.1221 278.292 27.1221C280.377 27.1221 281.69 25.7207 281.69 23.4795C281.69 21.2334 280.377 19.832 278.292 19.832ZM278.292 21.0625C279.444 21.0625 280.182 22 280.182 23.4795C280.182 24.9541 279.444 25.8867 278.292 25.8867C277.135 25.8867 276.397 24.9541 276.397 23.4795C276.397 22 277.14 21.0625 278.292 21.0625ZM284.117 27V24.8467L284.776 24.0557L286.866 27H288.629L285.841 23.0791L288.448 19.9541H286.808L284.161 23.167H284.117V19.9541H282.643V27H284.117Z" fill="white"/>
<rect x="265" y="39" width="40" height="1" rx="0.5" fill="white"/>
<rect x="254" y="45" width="51" height="1" rx="0.5" fill="white"/>
<rect x="254" y="51" width="51" height="1" rx="0.5" fill="white"/>
<rect x="254" y="57" width="51" height="1" rx="0.5" fill="white"/>
<rect x="254" y="63" width="51" height="1" rx="0.5" fill="white"/>
<g clip-path="url(#clip2_3603_7)">
<path d="M197 90.0705C197 90.0705 188.289 80.406 177.318 81.8154C174.193 82.2181 171.067 83.4933 166.014 87.453C160.694 91.6141 152.649 99.1309 145.534 111.815C145.201 112.084 144.004 112.822 142.275 112.688C140.813 112.554 139.815 111.815 139.416 111.48C145.6 99.198 143.605 87.9899 139.15 85.8423C134.961 83.8289 126.184 88.3926 120 98.3926C121.662 81.7483 123.79 63.2248 149.457 54.5C179.978 44.0973 196.668 84.0973 197 90.0705Z" fill="black"/>
<path d="M127.5 95C129.167 92.1667 133.9 87.6 139.5 92C137.833 91 133.1 90.2 127.5 95Z" fill="black" fill-opacity="0.4"/>
<path d="M162.5 104C165.667 103 173.1 102.6 177.5 109" stroke="black" stroke-width="1.5"/>
</g>
<circle cx="169" cy="112" r="2" fill="black"/>
<defs>
<clipPath id="clip0_3603_7">
<rect width="344" height="219.592" fill="white" transform="translate(0 54)"/>
</clipPath>
<clipPath id="clip1_3603_7">
<rect width="33" height="40.5507" fill="white" transform="translate(213 26)"/>
</clipPath>
<clipPath id="clip2_3603_7">
<rect width="77" height="60" fill="white" transform="translate(120 53)"/>
</clipPath>
</defs>
</svg>
